<svg id="icon4" xmlns="http://www.w3.org/2000/svg" width="108.011" height="98.315" viewBox="0 0 108.011 98.315">
    <g transform="translate(1 -18.908)">
        <g transform="translate(0 19.908)">
            <path d="M23.493,208.207a23.3,23.3,0,0,1-16.66-39.828l20.044-20.044a23.41,23.41,0,0,1,33.06,0,23.833,23.833,0,0,1,6.768,14.838,3.913,3.913,0,0,1-7.809.521A15.52,15.52,0,0,0,32.344,153.8L12.3,173.846a15.873,15.873,0,0,0,0,22.126,15.873,15.873,0,0,0,22.127,0l14.838-14.838a3.865,3.865,0,0,1,5.467,5.467L39.893,201.439A22.393,22.393,0,0,1,23.493,208.207Z"
                  transform="translate(0 -111.892)" fill="none" stroke="#e78319" stroke-width="2"/>
            <path d="M185.029,86.548a23.42,23.42,0,0,1-16.66-6.768A23.833,23.833,0,0,1,161.6,64.942a3.913,3.913,0,1,1,7.809-.521,15.749,15.749,0,0,0,4.425,9.892,15.718,15.718,0,0,0,21.866,0l20.044-20.044a15.646,15.646,0,1,0-22.126-22.126L178.781,46.98a3.865,3.865,0,1,1-5.467-5.467l14.838-14.838A23.561,23.561,0,0,1,221.472,60L201.428,80.04A23.228,23.228,0,0,1,185.029,86.548Z"
                  transform="translate(-122.229 -19.908)" fill="none" stroke="#e78319" stroke-width="2"/>
        </g>
    </g>
</svg>
