<svg xmlns="http://www.w3.org/2000/svg" xml:space="preserve" width="805px" height="691px" version="1.1" style="shape-rendering:geometricPrecision; text-rendering:geometricPrecision; image-rendering:optimizeQuality; fill-rule:evenodd; clip-rule:evenodd"
viewBox="0 0 805 691.001"
 xmlns:xlink="http://www.w3.org/1999/xlink">
 <defs>
  <style type="text/css">
   <![CDATA[
    .str1 {stroke:white;stroke-width:3.125;stroke-miterlimit:22.9256;stroke-opacity:0.200000}
    .str2 {stroke:white;stroke-width:3.125;stroke-miterlimit:22.9256;stroke-opacity:0.400000}
    .str0 {stroke:white;stroke-width:3.125;stroke-miterlimit:22.9256;stroke-opacity:0.600000}
    .str3 {stroke:white;stroke-width:3.125;stroke-miterlimit:22.9256;stroke-opacity:0.800000}
    .str4 {stroke:white;stroke-width:3.125;stroke-miterlimit:22.9256}
    .str5 {stroke:white;stroke-width:3.128;stroke-miterlimit:22.9256}
    .fil4 {fill:none}
    .fil1 {fill:none}
    .fil2 {fill:none}
    .fil0 {fill:none}
    .fil3 {fill:none}
   ]]>
  </style>
 </defs>
 <g id="Слой_x0020_1">
  <metadata id="CorelCorpID_0Corel-Layer"/>
  <g id="_2273426116816">
   <path class="fil0" d="M509.203 567.065c65.476,-67.739 33.369,-204.995 -71.715,-306.572 -105.084,-101.576 -243.351,-129.007 -308.829,-61.269 -65.476,67.738 -33.369,204.996 71.715,306.572 105.084,101.576 243.351,129.007 308.829,61.269z"/>
   <path class="fil0 str0" d="M508.842 566.717c65.286,-67.54 33.183,-204.479 -71.702,-305.864 -104.885,-101.384 -242.835,-128.821 -308.121,-61.281 -65.285,67.54 -33.182,204.48 71.702,305.864 104.885,101.384 242.836,128.821 308.121,61.281z"/>
   <path class="fil1" d="M549.118 627.957c83.526,-86.411 43.505,-260.597 -89.389,-389.055 -132.894,-128.459 -308.338,-162.545 -391.866,-76.134 -83.526,86.411 -43.505,260.597 89.389,389.056 132.894,128.458 308.339,162.545 391.866,76.133z"/>
   <path class="fil1 str1" d="M548.758 627.61c83.334,-86.213 43.32,-260.082 -89.376,-388.349 -132.695,-128.266 -307.824,-162.357 -391.158,-76.146 -83.335,86.213 -43.321,260.083 89.376,388.35 132.695,128.266 307.823,162.357 391.158,76.145z"/>
   <path class="fil2" d="M527.293 591.53c71.238,-73.698 34.46,-224.815 -82.145,-337.528 -116.606,-112.713 -268.882,-144.341 -340.12,-70.644 -71.238,73.698 -34.461,224.815 82.145,337.528 116.605,112.713 268.883,144.341 340.12,70.644z"/>
   <path class="fil2 str2" d="M526.933 591.181c71.047,-73.499 34.274,-224.298 -82.133,-336.819 -116.407,-112.522 -268.367,-144.155 -339.413,-70.655 -71.045,73.498 -34.273,224.298 82.133,336.819 116.407,112.521 268.368,144.155 339.413,70.655z"/>
   <path class="fil3 str3" d="M479.158 525.466c52.996,-54.826 27.035,-165.894 -57.986,-248.076 -85.02,-82.183 -196.905,-104.359 -249.901,-49.534 -52.997,54.826 -27.037,165.894 57.985,248.077 85.02,82.184 196.905,104.36 249.902,49.533z"/>
   <circle class="fil4" cx="325.347" cy="429.918" r="9.505"/>
   <circle class="fil4 str4" cx="325.347" cy="429.918" r="9.004"/>
   <circle class="fil4" cx="320.345" cy="381.894" r="6.503"/>
   <circle class="fil4 str4" cx="320.345" cy="381.894" r="6.003"/>
   <circle class="fil4" cx="341.355" cy="340.873" r="6.503"/>
   <circle class="fil4 str4" cx="341.355" cy="340.873" r="6.003"/>
   <circle class="fil4" cx="370.87" cy="373.39" r="5.002"/>
   <circle class="fil4 str4" cx="370.87" cy="373.39" r="4.502"/>
   <circle class="fil4" cx="363.866" cy="402.404" r="5.002"/>
   <circle class="fil4 str4" cx="363.866" cy="402.404" r="4.502"/>
   <circle class="fil4" cx="280.825" cy="388.397" r="5.002"/>
   <circle class="fil4 str4" cx="280.825" cy="388.397" r="4.502"/>
   <ellipse class="fil4" cx="262.315" cy="369.388" rx="3.502" ry="5.002"/>
   <ellipse class="fil4 str4" cx="262.315" cy="369.388" rx="3.001" ry="4.502"/>
   <ellipse class="fil4" transform="matrix(0.280143 -0.155279 0.155279 0.280143 269.321 418.414)" rx="10.937" ry="15.625"/>
   <ellipse class="fil4 str5" transform="matrix(0.280143 -0.155279 0.155279 0.280143 269.321 418.414)" rx="9.374" ry="14.062"/>
   <ellipse class="fil4" transform="matrix(-0.0989358 -0.304493 0.304493 -0.0989358 343.356 452.43)" rx="10.937" ry="15.625"/>
   <ellipse class="fil4 str4" transform="matrix(-0.0989358 -0.304493 0.304493 -0.0989358 343.356 452.43)" rx="9.374" ry="14.062"/>
   <ellipse class="fil4" transform="matrix(-0.192679 -0.255693 0.255693 -0.192679 380.375 434.42)" rx="10.937" ry="15.625"/>
   <ellipse class="fil4 str4" transform="matrix(-0.192679 -0.255693 0.255693 -0.192679 380.375 434.42)" rx="9.374" ry="14.062"/>
   <ellipse class="fil4" transform="matrix(-0.313167 -0.0665656 0.0665656 -0.313167 399.385 404.405)" rx="10.937" ry="15.625"/>
   <ellipse class="fil4 str4" transform="matrix(-0.313167 -0.0665656 0.0665656 -0.313167 399.385 404.405)" rx="9.374" ry="14.062"/>
   <ellipse class="fil4" transform="matrix(-0.298898 0.114736 -0.114736 -0.298898 398.384 358.381)" rx="10.937" ry="15.625"/>
   <ellipse class="fil4 str4" transform="matrix(-0.298898 0.114736 -0.114736 -0.298898 398.384 358.381)" rx="9.374" ry="14.062"/>
   <ellipse class="fil4" transform="matrix(-0.252292 0.197112 -0.197112 -0.252292 380.375 330.368)" rx="10.937" ry="15.625"/>
   <ellipse class="fil4 str4" transform="matrix(-0.252292 0.197112 -0.197112 -0.252292 380.375 330.368)" rx="9.374" ry="14.062"/>
   <ellipse class="fil4" transform="matrix(0.135307 -0.290166 0.290166 0.135307 300.67 446.669)" rx="12.5" ry="17.187"/>
   <ellipse class="fil4 str4" transform="matrix(0.135307 -0.290166 0.290166 0.135307 300.67 446.669)" rx="10.937" ry="15.625"/>
   <ellipse class="fil4" transform="matrix(0.292629 0.130306 -0.130306 0.292629 273.321 342.378)" rx="10.937" ry="15.625"/>
   <ellipse class="fil4 str5" transform="matrix(0.292629 0.130306 -0.130306 0.292629 273.321 342.378)" rx="9.374" ry="14.062"/>
   <ellipse class="fil4" transform="matrix(0.130222 0.292483 -0.292483 0.130222 295.332 322.364)" rx="10.937" ry="15.625"/>
   <ellipse class="fil4 str4" transform="matrix(0.130222 0.292483 -0.292483 0.130222 295.332 322.364)" rx="9.374" ry="14.062"/>
   <ellipse class="fil4" transform="matrix(-0.0774544 0.310653 -0.310653 -0.0774544 345.357 313.36)" rx="10.937" ry="15.625"/>
   <ellipse class="fil4 str4" transform="matrix(-0.0774544 0.310653 -0.310653 -0.0774544 345.357 313.36)" rx="9.374" ry="14.062"/>
   <circle class="fil4" cx="302.335" cy="340.873" r="4.502"/>
   <circle class="fil4 str4" cx="302.335" cy="340.873" r="4.002"/>
   <path id="Path_62" class="fil4 str4" d="M281.324 383.895c2.142,-7.163 4.813,-14.204 7.934,-20.989 3.206,-6.589 6.937,-12.99 11.071,-19.025" data-name="Path 62"/>
   <path id="Path_59" class="fil4 str4" d="M370.87 378.393c0,0 -1.123,12.08 -5.009,20.26" data-name="Path 59"/>
   <line id="Line_11" class="fil4 str4" x1="286.327" y1="386.897" x2="314.342" y2= "381.895"  data-name="Line 11"/>
   <path id="Path_60" class="fil4 str4" d="M283.326 392.9c3.998,6.682 8.875,12.848 14.43,18.292 5.933,5.338 12.538,9.968 19.592,13.724" data-name="Path 60"/>
   <path id="Path_61" class="fil4 str4" d="M333.352 424.916c0,0 8.927,-5.262 15.681,-10.265 4.006,-2.957 7.811,-6.234 11.333,-9.743" data-name="Path 61"/>
   <path id="Path_63" class="fil4 str4" d="M306.337 339.872c4.106,-0.487 8.268,-0.751 12.406,-0.751 0.752,0 1.554,0.013 2.294,0.025 4.798,0.209 9.598,0.796 14.318,1.723" data-name="Path 63"/>
   <path id="Path_64" class="fil4 str4" d="M346.83 343.707c0,0 8.654,5.138 14.157,11.641 3.536,4.367 6.377,9.291 8.382,14.543" data-name="Path 64"/>
   <line id="Line_12" class="fil4 str4" x1="304.337" y1="344.875" x2="318.343" y2= "375.891"  data-name="Line 12"/>
   <line id="Line_13" class="fil4 str4" x1="338.353" y1="345.876" x2="323.346" y2= "376.891"  data-name="Line 13"/>
   <line id="Line_14" class="fil4 str4" x1="366.368" y1="373.89" x2="326.348" y2= "379.893"  data-name="Line 14"/>
   <line id="Line_15" class="fil4 str4" x1="360.364" y1="399.903" x2="325.347" y2= "384.896"  data-name="Line 15"/>
   <line id="Line_16" class="fil4 str4" x1="324.347" y1="420.913" x2="321.346" y2= "387.897"  data-name="Line 16"/>
   <path id="Path_71" class="fil4 str4" d="M281.324 392.9c1.125,8.424 3.05,16.774 5.711,24.84 3.078,8.657 6.892,17.113 11.295,25.176" data-name="Path 71"/>
   <path id="Path_87" class="fil4 str4" d="M271.971 421.637c3.556,4.302 7.469,8.37 11.621,12.112 4.288,3.659 8.947,6.937 13.829,9.752" data-name="Path 87"/>
   <path id="Path_72" class="fil4 str4" d="M305.337 448.928c0,0 7.851,2.018 16.355,3.269 8.505,1.251 17.662,1.734 17.662,1.734" data-name="Path 72"/>
   <line id="Line_20" class="fil4 str4" x1="304.337" y1="444.926" x2="317.343" y2= "434.921"  data-name="Line 20"/>
   <path id="Path_73" class="fil4 str4" d="M330.349 437.922c1.754,2.625 3.701,5.171 5.775,7.555 1.531,1.715 3.296,3.215 5.231,4.452" data-name="Path 73"/>
   <path id="Path_74" class="fil4 str4" d="M362.89 406.924c-1.385,7.289 -3.553,14.461 -6.387,21.313 -4.504,10.507 -10.145,21.691 -10.145,21.691" data-name="Path 74"/>
   <path id="Path_75" class="fil4 str4" d="M347.358 452.929c0,0 8.773,-3.586 16.277,-7.337 4.66,-2.356 9.088,-5.194 13.183,-8.432" data-name="Path 75"/>
   <path id="Path_69" class="fil4 str4" d="M262.316 373.89c-0.004,0.382 -0.004,0.762 -0.004,1.142 0,6.626 0.47,13.27 1.339,19.824 1.009,6.464 2.594,12.859 4.667,19.051" data-name="Path 69"/>
   <path id="Path_86" class="fil4 str4" d="M271.32 345.876c0,0 -2.732,5.021 -4.983,9.772 -1.408,3.032 -2.573,6.201 -3.454,9.421" data-name="Path 86"/>
   <path id="Path_85" class="fil4 str4" d="M275.2 338.441c2.351,-2.799 4.914,-5.479 7.593,-7.957 2.692,-2.382 5.553,-4.611 8.534,-6.619" data-name="Path 85"/>
   <path id="Path_84" class="fil4 str4" d="M299.019 319.993c0,0 9.786,-2.854 20.37,-4.889 10.582,-2.034 21.966,-3.245 21.966,-3.245" data-name="Path 84"/>
   <path id="Path_83" class="fil4 str4" d="M349.45 314.672c4.741,0.806 9.388,2.165 13.821,4.019 7.006,3.003 14.102,9.176 14.102,9.176" data-name="Path 83"/>
   <path id="Path_79" class="fil4 str4" d="M383.376 333.87c2.716,2.988 5.142,6.259 7.215,9.718 2.231,3.93 4.176,8.075 5.79,12.298" data-name="Path 79"/>
   <path id="Path_77" class="fil4 str4" d="M399.384 361.883c0.983,5.981 1.532,12.055 1.559,18.127 -0.081,6.628 -0.616,13.332 -1.552,19.902" data-name="Path 77"/>
   <path id="Path_76" class="fil4 str4" d="M398.137 408.631c-1.994,3.871 -4.229,7.681 -6.659,11.297 -3.757,5.497 -8.102,10.99 -8.102,10.99" data-name="Path 76"/>
   <line id="Line_32" class="fil4 str4" x1="366.368" y1="407.907" x2="379.374" y2= "430.918"  data-name="Line 32"/>
   <line id="Line_33" class="fil4 str4" x1="368.369" y1="402.904" x2="396.383" y2= "403.906"  data-name="Line 33"/>
   <path id="Path_78" class="fil4 str4" d="M375.125 372.01c3.413,-2.548 7.045,-4.864 10.802,-6.868 5.002,-2.502 10.083,-4.491 10.083,-4.491" data-name="Path 78"/>
   <path id="Path_82" class="fil4 str4" d="M345.217 316.343c-0.859,3.092 -1.493,6.284 -1.864,9.477 -0.145,1.495 -0.218,3.015 -0.218,4.523 0,1.51 0.073,3.03 0.22,4.526" data-name="Path 82"/>
   <path id="Path_66" class="fil4 str4" d="M305.337 338.872c5.235,-5.45 11.137,-10.289 17.512,-14.343 6.437,-3.729 13.342,-6.639 20.508,-8.664" data-name="Path 66"/>
   <path id="Path_65" class="fil4 str4" d="M296.332 324.865c1.238,1.693 2.283,3.526 3.111,5.45 0.834,2.122 1.472,4.316 1.895,6.554" data-name="Path 65"/>
   <path id="Path_67" class="fil4 str4" d="M274.321 345.876c0,0 -0.114,10.647 0.887,20.402 0.667,6.253 1.734,12.497 3.117,18.624" data-name="Path 67"/>
   <path id="Path_68" class="fil4 str4" d="M264.601 372.232c1.81,2.978 3.898,5.806 6.202,8.418 1.897,2.067 4.098,3.836 6.521,5.245" data-name="Path 68"/>
   <path id="Path_70" class="fil4 str4" d="M270.319 414.911c0.906,-4.426 2.179,-8.803 3.767,-13.031 1.291,-3.228 3.065,-6.263 5.236,-8.981" data-name="Path 70"/>
   <line id="Line_41" class="fil4 str4" x1="374.372" y1="376.891" x2="397.383" y2= "401.905"  data-name="Line 41"/>
   <path id="Path_81" class="fil4 str4" d="M345.357 336.871c0,0 10.112,-1.533 17.866,-3.033 7.754,-1.501 14.059,-2.984 14.059,-2.984" data-name="Path 81"/>
   <path id="Path_80" class="fil4 str4" d="M373.372 369.888c1.89,-5.489 3.446,-11.137 4.581,-16.83 1.133,-6.339 1.967,-12.747 2.427,-19.177" data-name="Path 80"/>
   <line id="Line_44" class="fil4 str4" x1="276.322" y1="342.875" x2="298.333" y2= "340.874"  data-name="Line 44"/>
  </g>
 </g>
</svg>
