<svg xmlns="http://www.w3.org/2000/svg" width="60.128" height="60" viewBox="0 0 60.128 60">
  <g id="itemThree_2" transform="translate(1 0.659)">
    <path id="XMLID_802_" d="M17.534,99.73H5.865a.938.938,0,0,0-.938.938v37.488a.937.937,0,0,0,.938.938H17.534a.937.937,0,0,0,.938-.938V100.668A.938.938,0,0,0,17.534,99.73Z" transform="translate(-4.003 -80.753)" fill="none" stroke="#e78319" stroke-width="2"/>
    <path id="XMLID_803_" d="M7.7.341a7.693,7.693,0,1,0,7.694,7.692A7.7,7.7,0,0,0,7.7.341Z" fill="none" stroke="#e78319" stroke-width="2"/>
    <path id="XMLID_804_" d="M129.479,94.761a13.706,13.706,0,0,0-10.253,4.3V96.63a.938.938,0,0,0-.938-.938H107.114a.938.938,0,0,0-.938.938v37.488a.937.937,0,0,0,.938.938h11.644a.937.937,0,0,0,.938-.938V115.571c0-6.25,1.7-8.685,6.055-8.685,4.745,0,5.122,3.9,5.122,9.007v18.227a.937.937,0,0,0,.938.938h11.648a.937.937,0,0,0,.938-.938V113.556C144.395,104.262,142.623,94.761,129.479,94.761Z" transform="translate(-86.267 -76.715)" fill="none" stroke="#e78319" stroke-width="2"/>
  </g>
</svg>
