<svg xmlns="http://www.w3.org/2000/svg" width="91.481" height="93.024" viewBox="0 0 91.481 93.024">
    <g id="itemThree_6" transform="translate(-3 1)">
        <g id="Group_34" transform="translate(4)">
            <g id="Group_33" transform="translate(0)">
                <path id="Path_117"
                      d="M88.853,9.257h-32.4V4.628A4.628,4.628,0,0,0,51.826,0H8.628A4.628,4.628,0,0,0,4,4.628V38.57A21.974,21.974,0,0,0,4.188,41.5,11.833,11.833,0,0,0,14.656,51.575l3.413.38a13.78,13.78,0,0,0-1.606,4.937H20.83l2.961-2.962A1.734,1.734,0,0,1,25.8,53.6l6.577,3.288h11.62a13.854,13.854,0,0,0-24.481-7.06c-1.564-1.43-3.152-3.136-3.135-4.306.065-4.025,3.976-6.956,8.01-6.956H51.826a4.628,4.628,0,0,0,4.628-4.628V32.4H76.511a9.257,9.257,0,0,1,9.257,9.257,11.143,11.143,0,0,1-1.588,5.731l-2.032,3.394a10.742,10.742,0,0,0-8.723-4.5H56.564a10.8,10.8,0,0,0,10.69,9.257H84.083a10.668,10.668,0,0,0-.941-3.086h.295a9.3,9.3,0,0,0,8.7-5.989,18.74,18.74,0,0,0,1.35-6.353V13.885A4.628,4.628,0,0,0,88.853,9.257ZM10.171,6.171h32.4V9.257h-32.4ZM13.256,21.6H10.171V18.513h3.086Zm-3.086-6.171V12.342h9.257v3.086ZM28.684,21.6H16.342V18.513H28.684Zm16.971,0H31.77V18.513H45.655Zm0-6.171H22.513V12.342H45.655Zm15.428,1.543h3.086v3.086H61.083Zm10.8,9.257h-10.8V23.142h10.8Zm16.971,0H74.968V23.142H88.853Zm0-6.171h-21.6V16.971h21.6Z"
                      transform="translate(-4)" fill="none" stroke="#e78319" stroke-width="2"/>
            </g>
        </g>
        <g id="Group_36" transform="translate(54.912 56.415)">
            <g id="Group_35">
                <path id="Path_118"
                      d="M295.771,313.26a6.183,6.183,0,0,0-.772.048,4.629,4.629,0,0,1-5.4-4.676v-.807a13.929,13.929,0,0,0,8.257-7.914,1.526,1.526,0,0,0-.888-1.966c-.039-.015-.078-.028-.118-.039a12.473,12.473,0,0,0,.438-3.149H280.342a13.784,13.784,0,0,1-7.5-2.22,11.973,11.973,0,0,0-.21,2.22,12.194,12.194,0,0,0,.446,3.155,1.526,1.526,0,0,0-1.023,1.9c.011.036.023.071.036.106a13.925,13.925,0,0,0,8.255,7.908v.807a4.628,4.628,0,0,1-5.4,4.676A6.171,6.171,0,0,0,268,319.431v7.714h33.941v-7.714A6.171,6.171,0,0,0,295.771,313.26Z"
                      transform="translate(-268 -292.536)" fill="none" stroke="#e78319" stroke-width="2"/>
            </g>
        </g>
        <g id="Group_38" transform="translate(13.256 57.267)">
            <g id="Group_37">
                <path id="Path_119"
                      d="M79.77,315.282A6.156,6.156,0,0,1,74,311.251a13.927,13.927,0,0,0,8.732-11.2H70.7a1.733,1.733,0,0,1-.771-.184L64.1,296.952l-2.584,2.593a1.742,1.742,0,0,1-1.234.509H55.2a13.927,13.927,0,0,0,8.732,11.2,6.156,6.156,0,0,1-5.756,4.024A6.171,6.171,0,0,0,52,321.453v9.257H85.941v-9.257A6.171,6.171,0,0,0,79.77,315.282Z"
                      transform="translate(-52 -296.952)" fill="none" stroke="#e78319" stroke-width="2"/>
            </g>
        </g>
    </g>
</svg>
