<svg xmlns="http://www.w3.org/2000/svg" width="71.252" height="74" viewBox="0 0 71.252 74">
  <g id="itemThree_4" transform="translate(0.375 1)">
    <g id="Group_32" data-name="Group 32" transform="translate(0.625)">
      <path id="Path_112" data-name="Path 112" d="M63.831,2.748H61.36a2.176,2.176,0,0,0,.128-.635,2.113,2.113,0,0,0-4.225,0,1.983,1.983,0,0,0,.13.635H49.3a2.107,2.107,0,0,0,.128-.635,2.115,2.115,0,0,0-4.23,0,2.044,2.044,0,0,0,.13.635h-8.09a2.107,2.107,0,0,0,.128-.635,2.114,2.114,0,0,0-4.228,0,2.107,2.107,0,0,0,.128.635h-8.09a2.107,2.107,0,0,0,.128-.635,2.114,2.114,0,0,0-4.228,0,2.042,2.042,0,0,0,.128.635h-8.09a2.042,2.042,0,0,0,.128-.635,2.113,2.113,0,1,0-4.225,0,2.107,2.107,0,0,0,.128.635H6.671A6.051,6.051,0,0,0,.625,8.794v57.16A6.049,6.049,0,0,0,6.671,72H57L69.877,59.128V8.794A6.049,6.049,0,0,0,63.831,2.748ZM66.579,57.76l-.684.684h-5.18a4.408,4.408,0,0,0-4.4,4.4v5.177l-.682.684H6.671a2.752,2.752,0,0,1-2.748-2.748V19.786H66.579Z" transform="translate(-0.625)" fill="none" stroke="#e78319" stroke-width="2"/>
      <path id="Path_113" data-name="Path 113" d="M23.838,36.306a115.207,115.207,0,0,0-2.717-20.694H19.373A149.182,149.182,0,0,1,19.932,39.6a58.01,58.01,0,0,0-7.295-14.2l-1.064.743a59.736,59.736,0,0,1,6.151,21.013h7.921s.838-12.883,6.2-24.366l-1.06-.93A55.448,55.448,0,0,0,23.838,36.306Z" transform="translate(12.496 18.711)" fill="none" stroke="#e78319" stroke-width="2"/>
      <path id="Path_114" data-name="Path 114" d="M15.585,20.5l2.621-1.913,3.058,1.071-1.009-3.082L22.222,14l-3.243.009-1.847-2.667-.994,3.087-3.109.93,2.629,1.9Z" transform="translate(14.242 13.593)" fill="none" stroke="#e78319" stroke-width="2"/>
      <path id="Path_115" data-name="Path 115" d="M23.1,21.13l1.565,2.84L25.971,21l3.188-.611-2.423-2.157.4-3.219-2.805,1.636L21.4,15.273l.69,3.168-2.218,2.366Z" transform="translate(22.446 17.996)" fill="none" stroke="#e78319" stroke-width="2"/>
      <path id="Path_116" data-name="Path 116" d="M11.751,22.448l.965,3.1L14.589,22.9l3.243.04-1.941-2.6,1.042-3.071-3.071,1.042-2.6-1.941L11.3,19.61,8.653,21.481Z" transform="translate(8.996 19.615)" fill="none" stroke="#e78319" stroke-width="2"/>
    </g>
  </g>
</svg>
