<svg xmlns="http://www.w3.org/2000/svg" width="88.024" height="88.024" viewBox="0 0 88.024 88.024">
    <g id="itemThree_3" transform="translate(1 1)">
        <path id="Path_94" d="M384.508,297.961h21.421V303H384.508Zm0,0" transform="translate(-319.904 -247.899)"
              fill="none" stroke="#e78319" stroke-width="2"/>
        <path id="Path_95" d="M384.508,358.84h16.269v5.04H384.508Zm0,0" transform="translate(-319.904 -298.549)"
              fill="none" stroke="#e78319" stroke-width="2"/>
        <path id="Path_96" d="M384.508,419.719H396.86v5.04H384.508Zm0,0" transform="translate(-319.904 -349.199)"
              fill="none" stroke="#e78319" stroke-width="2"/>
        <path id="Path_97" d="M384.508,480.6h18.648v5.04H384.508Zm0,0" transform="translate(-319.904 -399.85)"
              fill="none" stroke="#e78319" stroke-width="2"/>
        <path id="Path_98" d="M0,.5H21.421v5.04H0Zm0,0" transform="translate(0 -0.413)" fill="none" stroke="#e78319"
              stroke-width="2"/>
        <path id="Path_99" d="M30.664,61.375H46.933v5.04H30.664Zm0,0" transform="translate(-25.512 -51.063)" fill="none"
              stroke="#e78319" stroke-width="2"/>
        <path id="Path_100" d="M53.973,122.254H66.325v5.04H53.973Zm0,0" transform="translate(-44.904 -101.713)"
              fill="none" stroke="#e78319" stroke-width="2"/>
        <path id="Path_101" d="M16.5,183.133H35.148v5.04H16.5Zm0,0" transform="translate(-13.728 -152.364)" fill="none"
              stroke="#e78319" stroke-width="2"/>
        <path id="Path_102" d="M250.286,0H204.207l23.039,11.52Zm0,0" transform="translate(-169.897)" fill="none"
              stroke="#e78319" stroke-width="2"/>
        <path id="Path_103" d="M228.017,16.769,199.342,31.107,170.668,16.769v32.98h57.349Zm0,0"
              transform="translate(-141.993 -13.952)" fill="none" stroke="#e78319" stroke-width="2"/>
        <path id="Path_104" d="M79.473,298.941H33.395l23.039,11.52Zm0,0" transform="translate(-27.784 -248.714)"
              fill="none" stroke="#e78319" stroke-width="2"/>
        <path id="Path_105" d="M0,315.662v32.967H57.349V315.637l-28.7,14.35Zm0,0" transform="translate(0 -262.605)"
              fill="none" stroke="#e78319" stroke-width="2"/>
    </g>
</svg>
