<svg xmlns="http://www.w3.org/2000/svg" width="123.024" height="117.5" viewBox="0 0 123.024 117.5">
  <g id="itemThree_1" transform="translate(1 0.273)">
    <g id="itemThree_1-2" data-name="itemThree_1" transform="translate(0 0.727)">
      <rect id="Rectangle_9" data-name="Rectangle 9" width="9.856" height="3.535" transform="translate(72.495 42.557)" fill="none" stroke="#e78319" stroke-width="2"/>
      <circle id="Ellipse_24" data-name="Ellipse 24" cx="5.642" cy="5.642" r="5.642" transform="translate(8.281 69.939)" fill="none" stroke="#e78319" stroke-width="2"/>
      <circle id="Ellipse_25" data-name="Ellipse 25" cx="5.642" cy="5.642" r="5.642" transform="translate(20.977 78.717)" fill="none" stroke="#e78319" stroke-width="2"/>
      <circle id="Ellipse_26" data-name="Ellipse 26" cx="5.642" cy="5.642" r="5.642" transform="translate(35.928 83.938)" fill="none" stroke="#e78319" stroke-width="2"/>
      <circle id="Ellipse_27" data-name="Ellipse 27" cx="5.642" cy="5.642" r="5.642" transform="translate(51.708 85.483)" fill="none" stroke="#e78319" stroke-width="2"/>
      <circle id="Ellipse_28" data-name="Ellipse 28" cx="5.642" cy="5.642" r="5.642" transform="translate(67.604 83.703)" fill="none" stroke="#e78319" stroke-width="2"/>
      <circle id="Ellipse_29" data-name="Ellipse 29" cx="5.642" cy="5.642" r="5.642" transform="translate(81.014 77.058)" fill="none" stroke="#e78319" stroke-width="2"/>
      <circle id="Ellipse_30" data-name="Ellipse 30" cx="5.642" cy="5.642" r="5.642" transform="translate(92.405 67.566)" fill="none" stroke="#e78319" stroke-width="2"/>
      <circle id="Ellipse_31" data-name="Ellipse 31" cx="6.101" cy="6.101" r="6.101" transform="translate(0 86.778)" fill="none" stroke="#e78319" stroke-width="2"/>
      <circle id="Ellipse_32" data-name="Ellipse 32" cx="6.101" cy="6.101" r="6.101" transform="translate(14.169 96.049)" fill="none" stroke="#e78319" stroke-width="2"/>
      <circle id="Ellipse_33" data-name="Ellipse 33" cx="6.098" cy="6.098" r="6.098" transform="translate(30.681 101.68)" fill="none" stroke="#e78319" stroke-width="2"/>
      <circle id="Ellipse_34" data-name="Ellipse 34" cx="6.098" cy="6.098" r="6.098" transform="translate(48.712 103.305)" fill="none" stroke="#e78319" stroke-width="2"/>
      <circle id="Ellipse_35" data-name="Ellipse 35" cx="6.101" cy="6.101" r="6.101" transform="translate(66.682 102.079)" fill="none" stroke="#e78319" stroke-width="2"/>
      <circle id="Ellipse_36" data-name="Ellipse 36" cx="6.101" cy="6.101" r="6.101" transform="translate(82.985 96.262)" fill="none" stroke="#e78319" stroke-width="2"/>
      <circle id="Ellipse_37" data-name="Ellipse 37" cx="6.098" cy="6.098" r="6.098" transform="translate(96.778 87.302)" fill="none" stroke="#e78319" stroke-width="2"/>
      <circle id="Ellipse_38" data-name="Ellipse 38" cx="6.098" cy="6.098" r="6.098" transform="translate(108.829 75.517)" fill="none" stroke="#e78319" stroke-width="2"/>
      <path id="Path_91" data-name="Path 91" d="M47.386,37.926c24.774,0,34.592-12.533,38.02-19.033V16.68c-2.27,5.285-11.071,20.3-38.02,20.3C14.8,36.977,3.944,19.448,3.834,19.269l-.057.038v1.534C6.75,24.729,18.937,37.926,47.386,37.926Z" transform="translate(10.563 43.889)" fill="none" stroke="#e78319" stroke-width="2"/>
      <path id="Path_92" data-name="Path 92" d="M51.71,44.667c30.138,0,44.866-16.744,48.963-22.359V20.66C98.2,24.392,83.891,43.71,51.71,43.71c-34.47,0-48.955-17.8-49.87-18.976v1.458C5.382,30.163,20.493,44.667,51.71,44.667Z" transform="translate(5.146 55.02)" fill="none" stroke="#e78319" stroke-width="2"/>
      <circle id="Ellipse_39" data-name="Ellipse 39" cx="6.781" cy="6.781" r="6.781" transform="translate(46.487 27.481)" fill="none" stroke="#e78319" stroke-width="2"/>
      <path id="Path_93" data-name="Path 93" d="M30.967,54.116l.125,2.529h.357v2.68l1.462,7.445H31.541v2.138h5.179V66.771h-.414V59.326h1.7V66.7h-.577v2.134h5.418V66.7H41.424l1.443-7.373v-2.68H43.3l.345-5.672H72.1V12.918H52.244l-7.6-7.6A3,3,0,0,0,42.1.727a3.007,3.007,0,0,0-3.007,3.011,2.972,2.972,0,0,0,.349,1.382l-7.8,7.8H5.78V50.965h24.9Zm9.245-48.04a2.978,2.978,0,0,0,3.588.137l6.709,6.709H33.371ZM8.229,48.516V15.367h61.42V48.516H43.789l.137-2.236,13.6-6.063-1.538-2.961L45.661,42.328l-6.09.471-2.582,3-2.5-3-4.173.543L18.879,37.722l-1.6,3.265,13.072,6.424.1,1.109H8.229Z" transform="translate(16.165 -0.727)" fill="none" stroke="#e78319" stroke-width="2"/>
    </g>
  </g>
</svg>
