<svg xmlns="http://www.w3.org/2000/svg" width="887.867" height="784.742" viewBox="0 0 887.867 784.742">
  <g id="Group_20" data-name="Group 20" transform="translate(-817.133 -1279)">
    <g id="Ellipse_2" data-name="Ellipse 2" transform="translate(1216 1700)" fill="none" stroke="#fff" stroke-width="1">
      <circle cx="9.5" cy="9.5" r="9.5" stroke="none"/>
      <circle cx="9.5" cy="9.5" r="9" fill="none"/>
    </g>
    <g id="Ellipse_3" data-name="Ellipse 3" transform="translate(1214 1655)" fill="none" stroke="#fff" stroke-width="1">
      <circle cx="6.5" cy="6.5" r="6.5" stroke="none"/>
      <circle cx="6.5" cy="6.5" r="6" fill="none"/>
    </g>
    <g id="Ellipse_4" data-name="Ellipse 4" transform="translate(1235 1614)" fill="none" stroke="#fff" stroke-width="1">
      <circle cx="6.5" cy="6.5" r="6.5" stroke="none"/>
      <circle cx="6.5" cy="6.5" r="6" fill="none"/>
    </g>
    <g id="Ellipse_5" data-name="Ellipse 5" transform="translate(1266 1648)" fill="none" stroke="#fff" stroke-width="1">
      <circle cx="5" cy="5" r="5" stroke="none"/>
      <circle cx="5" cy="5" r="4.5" fill="none"/>
    </g>
    <g id="Ellipse_6" data-name="Ellipse 6" transform="translate(1259 1677)" fill="none" stroke="#fff" stroke-width="1">
      <circle cx="5" cy="5" r="5" stroke="none"/>
      <circle cx="5" cy="5" r="4.5" fill="none"/>
    </g>
    <g id="Ellipse_7" data-name="Ellipse 7" transform="translate(1176 1663)" fill="none" stroke="#fff" stroke-width="1">
      <circle cx="5" cy="5" r="5" stroke="none"/>
      <circle cx="5" cy="5" r="4.5" fill="none"/>
    </g>
    <g id="Ellipse_9" data-name="Ellipse 9" transform="translate(1159 1644)" fill="none" stroke="#fff" stroke-width="1">
      <ellipse cx="3.5" cy="5" rx="3.5" ry="5" stroke="none"/>
      <ellipse cx="3.5" cy="5" rx="3" ry="4.5" fill="none"/>
    </g>
    <g id="Ellipse_13" data-name="Ellipse 13" transform="matrix(0.875, -0.485, 0.485, 0.875, 1164.015, 1695.324)" fill="none" stroke="#fff" stroke-width="1">
      <ellipse cx="3.5" cy="5" rx="3.5" ry="5" stroke="none"/>
      <ellipse cx="3.5" cy="5" rx="3" ry="4.5" fill="none"/>
    </g>
    <g id="Ellipse_15" data-name="Ellipse 15" transform="translate(1239.826 1736.874) rotate(-108)" fill="none" stroke="#fff" stroke-width="1">
      <ellipse cx="3.5" cy="5" rx="3.5" ry="5" stroke="none"/>
      <ellipse cx="3.5" cy="5" rx="3" ry="4.5" fill="none"/>
    </g>
    <g id="Ellipse_16" data-name="Ellipse 16" transform="translate(1278.613 1719.804) rotate(-127)" fill="none" stroke="#fff" stroke-width="1">
      <ellipse cx="3.5" cy="5" rx="3.5" ry="5" stroke="none"/>
      <ellipse cx="3.5" cy="5" rx="3" ry="4.5" fill="none"/>
    </g>
    <g id="Ellipse_17" data-name="Ellipse 17" transform="translate(1301.884 1689.618) rotate(-168)" fill="none" stroke="#fff" stroke-width="1">
      <ellipse cx="3.5" cy="5" rx="3.5" ry="5" stroke="none"/>
      <ellipse cx="3.5" cy="5" rx="3" ry="4.5" fill="none"/>
    </g>
    <g id="Ellipse_18" data-name="Ellipse 18" transform="translate(1303.559 1641.413) rotate(159)" fill="none" stroke="#fff" stroke-width="1">
      <ellipse cx="3.5" cy="5" rx="3.5" ry="5" stroke="none"/>
      <ellipse cx="3.5" cy="5" rx="3" ry="4.5" fill="none"/>
    </g>
    <g id="Ellipse_19" data-name="Ellipse 19" transform="translate(1286.336 1611.785) rotate(142)" fill="none" stroke="#fff" stroke-width="1">
      <ellipse cx="3.5" cy="5" rx="3.5" ry="5" stroke="none"/>
      <ellipse cx="3.5" cy="5" rx="3" ry="4.5" fill="none"/>
    </g>
    <g id="Ellipse_14" data-name="Ellipse 14" transform="translate(1194.16 1727.543) rotate(-65)" fill="none" stroke="#fff" stroke-width="1">
      <ellipse cx="4" cy="5.5" rx="4" ry="5.5" stroke="none"/>
      <ellipse cx="4" cy="5.5" rx="3.5" ry="5" fill="none"/>
    </g>
    <g id="Ellipse_10" data-name="Ellipse 10" transform="matrix(0.914, 0.407, -0.407, 0.914, 1172.336, 1616.009)" fill="none" stroke="#fff" stroke-width="1">
      <ellipse cx="3.5" cy="5" rx="3.5" ry="5" stroke="none"/>
      <ellipse cx="3.5" cy="5" rx="3" ry="4.5" fill="none"/>
    </g>
    <g id="Ellipse_11" data-name="Ellipse 11" transform="translate(1198.644 1596.769) rotate(66)" fill="none" stroke="#fff" stroke-width="1">
      <ellipse cx="3.5" cy="5" rx="3.5" ry="5" stroke="none"/>
      <ellipse cx="3.5" cy="5" rx="3" ry="4.5" fill="none"/>
    </g>
    <g id="Ellipse_12" data-name="Ellipse 12" transform="translate(1251.198 1590.814) rotate(104)" fill="none" stroke="#fff" stroke-width="1">
      <ellipse cx="3.5" cy="5" rx="3.5" ry="5" stroke="none"/>
      <ellipse cx="3.5" cy="5" rx="3" ry="4.5" fill="none"/>
    </g>
    <g id="Ellipse_8" data-name="Ellipse 8" transform="translate(1198 1616)" fill="none" stroke="#fff" stroke-width="1">
      <circle cx="4.5" cy="4.5" r="4.5" stroke="none"/>
      <circle cx="4.5" cy="4.5" r="4" fill="none"/>
    </g>
    <path id="Path_62" data-name="Path 62" d="M0,40A159.645,159.645,0,0,1,7.929,19.015,149.725,149.725,0,0,1,19,0" transform="translate(1181.5 1623.5)" fill="none" stroke="#fff" stroke-width="1"/>
    <path id="Path_59" data-name="Path 59" d="M3310,1658s-1.122,12.075-5.006,20.25" transform="translate(-2039)" fill="none" stroke="#fff" stroke-width="1"/>
    <line id="Line_11" data-name="Line 11" y1="5" x2="28" transform="translate(1186.5 1661.5)" fill="none" stroke="#fff" stroke-width="1"/>
    <path id="Path_60" data-name="Path 60" d="M0,0A90.959,90.959,0,0,0,14.419,18.282,99.216,99.216,0,0,0,34,32" transform="translate(1183.5 1672.5)" fill="none" stroke="#fff" stroke-width="1"/>
    <path id="Path_61" data-name="Path 61" d="M0,20S8.924,14.741,15.674,9.741A100.462,100.462,0,0,0,27,0" transform="translate(1233.5 1684.5)" fill="none" stroke="#fff" stroke-width="1"/>
    <path id="Path_63" data-name="Path 63" d="M0,0A102.645,102.645,0,0,1,14.688-.726,96.1,96.1,0,0,1,29,1" transform="translate(1206.5 1619.5)" fill="none" stroke="#fff" stroke-width="1"/>
    <path id="Path_64" data-name="Path 64" d="M-.528-.167s8.65,5.135,14.15,11.635A53.469,53.469,0,0,1,22,26" transform="translate(1247.5 1623.5)" fill="none" stroke="#fff" stroke-width="1"/>
    <line id="Line_12" data-name="Line 12" x2="14" y2="31" transform="translate(1204.5 1624.5)" fill="none" stroke="#fff" stroke-width="1"/>
    <line id="Line_13" data-name="Line 13" x1="15" y2="31" transform="translate(1223.5 1625.5)" fill="none" stroke="#fff" stroke-width="1"/>
    <line id="Line_14" data-name="Line 14" x1="40" y2="6" transform="translate(1226.5 1653.5)" fill="none" stroke="#fff" stroke-width="1"/>
    <line id="Line_15" data-name="Line 15" x1="35" y1="15" transform="translate(1225.5 1664.5)" fill="none" stroke="#fff" stroke-width="1"/>
    <line id="Line_16" data-name="Line 16" x1="3" y1="33" transform="translate(1221.5 1667.5)" fill="none" stroke="#fff" stroke-width="1"/>
    <path id="Path_71" data-name="Path 71" d="M0,0A137,137,0,0,0,5.7,24.829,178.417,178.417,0,0,0,17,50" transform="translate(1181.5 1672.5)" fill="none" stroke="#fff" stroke-width="1"/>
    <path id="Path_87" data-name="Path 87" d="M.651-1.277A115.222,115.222,0,0,0,12.266,10.833a92.539,92.539,0,0,0,13.817,9.744" transform="translate(1171.5 1702.5)" fill="none" stroke="#fff" stroke-width="1"/>
    <path id="Path_72" data-name="Path 72" d="M0,0S7.847,2.018,16.347,3.268,34,5,34,5" transform="translate(1205.5 1728.5)" fill="none" stroke="#fff" stroke-width="1"/>
    <line id="Line_20" data-name="Line 20" y1="10" x2="13" transform="translate(1204.5 1714.5)" fill="none" stroke="#fff" stroke-width="1"/>
    <path id="Path_73" data-name="Path 73" d="M0,0A74.462,74.462,0,0,0,5.771,7.553,25.265,25.265,0,0,0,11,12" transform="translate(1230.5 1717.5)" fill="none" stroke="#fff" stroke-width="1"/>
    <path id="Path_74" data-name="Path 74" d="M16.524-.982a108.933,108.933,0,0,1-6.386,21.3C5.638,30.822,0,42,0,42" transform="translate(1246.5 1687.5)" fill="none" stroke="#fff" stroke-width="1"/>
    <path id="Path_75" data-name="Path 75" d="M0,15s8.769-3.584,16.269-7.334A77.954,77.954,0,0,0,29.447-.762" transform="translate(1247.5 1717.5)" fill="none" stroke="#fff" stroke-width="1"/>
    <path id="Path_69" data-name="Path 69" d="M0,0A148.22,148.22,0,0,0,1.327,20.963,117.9,117.9,0,0,0,6,40" transform="translate(1162.5 1653.5)" fill="none" stroke="#fff" stroke-width="1"/>
    <path id="Path_86" data-name="Path 86" d="M9,0S6.27,5.018,4.02,9.768A59.636,59.636,0,0,0,.567,19.182" transform="translate(1162.5 1625.5)" fill="none" stroke="#fff" stroke-width="1"/>
    <path id="Path_85" data-name="Path 85" d="M.878,14.569A87.064,87.064,0,0,1,8.468,6.621,82.179,82.179,0,0,1,17,0" transform="translate(1174.5 1603.5)" fill="none" stroke="#fff" stroke-width="1"/>
    <path id="Path_84" data-name="Path 84" d="M.686,8.13s9.78-2.853,20.358-4.886S43,0,43,0" transform="translate(1198.5 1591.5)" fill="none" stroke="#fff" stroke-width="1"/>
    <path id="Path_83" data-name="Path 83" d="M.091-1.188A63.219,63.219,0,0,1,13.908,2.83C20.908,5.83,28,12,28,12" transform="translate(1249.5 1595.5)" fill="none" stroke="#fff" stroke-width="1"/>
    <path id="Path_79" data-name="Path 79" d="M0,0A61.7,61.7,0,0,1,7.212,9.712,90.5,90.5,0,0,1,13,22" transform="translate(1283.5 1613.5)" fill="none" stroke="#fff" stroke-width="1"/>
    <path id="Path_77" data-name="Path 77" d="M0,0A115.07,115.07,0,0,1,1.556,18.116,156.361,156.361,0,0,1,0,38" transform="translate(1299.5 1641.5)" fill="none" stroke="#fff" stroke-width="1"/>
    <path id="Path_76" data-name="Path 76" d="M14.753-.276A113,113,0,0,1,8.092,11.009C4.342,16.509,0,22,0,22" transform="translate(1283.5 1688.5)" fill="none" stroke="#fff" stroke-width="1"/>
    <line id="Line_32" data-name="Line 32" x2="13" y2="23" transform="translate(1266.5 1687.5)" fill="none" stroke="#fff" stroke-width="1"/>
    <line id="Line_33" data-name="Line 33" x2="28" y2="1" transform="translate(1268.5 1682.5)" fill="none" stroke="#fff" stroke-width="1"/>
    <path id="Path_78" data-name="Path 78" d="M-1.248,10.121a85.437,85.437,0,0,1,10.8-6.86c5-2.5,10.078-4.489,10.078-4.489" transform="translate(1276.5 1641.5)" fill="none" stroke="#fff" stroke-width="1"/>
    <path id="Path_82" data-name="Path 82" d="M1.859.481A63.289,63.289,0,0,0,0,9.951,46.258,46.258,0,0,0,0,19" transform="translate(1243.5 1595.5)" fill="none" stroke="#fff" stroke-width="1"/>
    <path id="Path_66" data-name="Path 66" d="M0,23A94.55,94.55,0,0,1,17.5,8.665,89.573,89.573,0,0,1,38,0" transform="translate(1205.5 1595.5)" fill="none" stroke="#fff" stroke-width="1"/>
    <path id="Path_65" data-name="Path 65" d="M0,0A27.881,27.881,0,0,1,3.109,5.446,36.8,36.8,0,0,1,5,12" transform="translate(1196.5 1604.5)" fill="none" stroke="#fff" stroke-width="1"/>
    <path id="Path_67" data-name="Path 67" d="M0,0S-.114,10.642.886,20.392A161.791,161.791,0,0,0,4,39" transform="translate(1174.5 1625.5)" fill="none" stroke="#fff" stroke-width="1"/>
    <path id="Path_68" data-name="Path 68" d="M.285.343a59.535,59.535,0,0,0,6.2,8.416A27.857,27.857,0,0,0,13,14" transform="translate(1164.5 1651.5)" fill="none" stroke="#fff" stroke-width="1"/>
    <path id="Path_70" data-name="Path 70" d="M0,22A86.126,86.126,0,0,1,3.76,8.975,35.766,35.766,0,0,1,9,0" transform="translate(1170.5 1672.5)" fill="none" stroke="#fff" stroke-width="1"/>
    <line id="Line_41" data-name="Line 41" x2="23" y2="25" transform="translate(1274.5 1656.5)" fill="none" stroke="#fff" stroke-width="1"/>
    <path id="Path_81" data-name="Path 81" d="M0,6S10.107,4.468,17.857,2.968,31.909-.015,31.909-.015" transform="translate(1245.5 1610.5)" fill="none" stroke="#fff" stroke-width="1"/>
    <path id="Path_80" data-name="Path 80" d="M0,36A127.363,127.363,0,0,0,4.573,19.181,179.681,179.681,0,0,0,7,0" transform="translate(1273.5 1613.5)" fill="none" stroke="#fff" stroke-width="1"/>
    <line id="Line_44" data-name="Line 44" y1="2" x2="22" transform="translate(1176.5 1620.5)" fill="none" stroke="#fff" stroke-width="1"/>
    <g id="Ellipse_20" data-name="Ellipse 20" transform="matrix(0.719, 0.695, -0.695, 0.719, 1167.399, 1407.611)" fill="rgba(255,255,255,0.1)" stroke="#fff" stroke-width="1" opacity="0.8">
      <ellipse cx="214.5" cy="138.5" rx="214.5" ry="138.5" stroke="none"/>
      <ellipse cx="214.5" cy="138.5" rx="214" ry="138" fill="none"/>
    </g>
    <g id="Ellipse_21" data-name="Ellipse 21" transform="matrix(0.719, 0.695, -0.695, 0.719, 1147.409, 1356.333)" fill="none" stroke="#fff" stroke-width="1" opacity="0.6">
      <ellipse cx="264.5" cy="170.5" rx="264.5" ry="170.5" stroke="none"/>
      <ellipse cx="264.5" cy="170.5" rx="264" ry="170" fill="none"/>
    </g>
    <g id="Ellipse_22" data-name="Ellipse 22" transform="matrix(0.719, 0.695, -0.695, 0.719, 1119.309, 1286.102)" fill="none" stroke="#fff" stroke-width="1" opacity="0.2">
      <ellipse cx="334.5" cy="217.5" rx="334.5" ry="217.5" stroke="none"/>
      <ellipse cx="334.5" cy="217.5" rx="334" ry="217" fill="none"/>
    </g>
    <g id="Ellipse_23" data-name="Ellipse 23" transform="matrix(0.719, 0.695, -0.695, 0.719, 1134.214, 1329.69)" fill="none" stroke="#fff" stroke-width="1" opacity="0.4">
      <ellipse cx="293.5" cy="185.5" rx="293.5" ry="185.5" stroke="none"/>
      <ellipse cx="293.5" cy="185.5" rx="293" ry="185" fill="none"/>
    </g>
    <g id="Rectangle_1" data-name="Rectangle 1" transform="translate(900 1279)" fill="none" stroke="#fff" stroke-width="1">
      <rect width="805" height="690" stroke="none"/>
      <rect x="0.5" y="0.5" width="804" height="689" fill="none"/>
    </g>
  </g>
</svg>
