<svg xmlns="http://www.w3.org/2000/svg" width="896.331" height="894.399" viewBox="0 0 896.331 894.399">
    <path id="svgFirst"
          d="M1924.084,221.344c10.093,4.246,295.455,296.042,341.29,339.6,21.692,20.613,90.939,9.642,125.646,9.252,84.28-.944,193.885-7,275.679,1.314l.49,174.029c-26.716-11.189-82.024-83.59-112.837-108.537-19.436-15.734-71.721-7.763-101.159-7.781-37.188-.02-76.056-1.2-113.023.365,5.766,14.8,206.006,210.179,232.99,237.32l175.35,174.385c10.821,10.827,18.661,18.307,29.142,29.133,6.331,6.542,9.3,9.295,15.693,15.561,2.988,2.926,4.837,4.38,7.418,7.782,6.268,8.267,3.09,3.72,4.675,8.356l9.6-2.562-.079-676.621c-95.7-4.633-206.183-.679-303.473-.76-50.51-.041-101.369.414-151.82-.081-28.4-.277-31.462-11.83-46.108-26.154-8.24-8.062-29.913-27.007-34.651-38.852l532.574-2.106c5.944-10.437,4.458-22.45,4.316-36.441-.289-28.366,3.257-89.659-2.79-106.959l-6.726-1.9c-26.079-5.086,18.614,1.66-7.165-1.221l-870.505.057c-11.6,5.378-9.149-4.777-4.521,12.822Z"
          transform="translate(-1920.234 -207.723)" fill="#fefefd" fill-rule="evenodd" opacity="0.2"/>
</svg>
